<?xml version="1.0" encoding="utf-8"?>
<!-- Generator: Adobe Illustrator 15.0.2, SVG Export Plug-In . SVG Version: 6.00 Build 0)  -->
<!DOCTYPE svg PUBLIC "-//W3C//DTD SVG 1.0//EN" "http://www.w3.org/TR/2001/REC-SVG-20010904/DTD/svg10.dtd">
<svg version="1.0" id="Layer_1" xmlns="http://www.w3.org/2000/svg" xmlns:xlink="http://www.w3.org/1999/xlink" x="0px" y="0px"
	 width="40px" height="40px" viewBox="0 0 40 40" enable-background="new 0 0 40 40" xml:space="preserve">
<path fill="#FFFFFF" d="M38.164-0.508H1.835c-1.288,0-2.343,1.055-2.343,2.343v36.329c0,1.289,1.055,2.344,2.343,2.344h36.329
	c1.289,0,2.344-1.055,2.344-2.344V1.835C40.508,0.547,39.453-0.508,38.164-0.508z M34.307,20.988h-5.638v15.078H22.93V20.988h-3.987
	V15.56h3.987c0,0,0-2.225,0-4.637c0-3.644,2.355-6.99,7.783-6.99c2.195,0,3.821,0.21,3.821,0.21l-0.128,5.07
	c0,0-1.657-0.016-3.467-0.016c-1.957,0-2.271,0.902-2.271,2.397c0,0.185,0,0.25,0,0.254c0,0.419,0,1.438,0,3.71h5.894L34.307,20.988
	z"/>
</svg>
