<?xml version="1.0" encoding="utf-8"?>
<!-- Generator: Adobe Illustrator 15.1.0, SVG Export Plug-In . SVG Version: 6.00 Build 0)  -->
<!DOCTYPE svg PUBLIC "-//W3C//DTD SVG 1.1//EN" "http://www.w3.org/Graphics/SVG/1.1/DTD/svg11.dtd">
<svg version="1.1" id="Layer_1" xmlns="http://www.w3.org/2000/svg" xmlns:xlink="http://www.w3.org/1999/xlink" x="0px" y="0px"
	 width="40px" height="40px" viewBox="0 0 40 40" enable-background="new 0 0 40 40" xml:space="preserve">
<g id="Layer_1_1_" display="none">
	<path display="inline" d="M19.477,0c0.864,0,1.739,0.058,2.619,0.176c10.676,1.438,18.166,11.249,16.729,21.92
		c-1.32,9.789-9.691,16.902-19.301,16.902c-0.862,0-1.739-0.061-2.621-0.176C6.229,37.389-1.261,27.578,0.177,16.902
		C1.491,7.109,9.861,0,19.477,0 M19.477,2.48c-8.474,0-15.713,6.343-16.843,14.751C2.029,21.738,3.212,26.21,5.97,29.824
		c2.757,3.609,6.758,5.936,11.263,6.539c0.763,0.104,1.532,0.154,2.291,0.154c8.469,0,15.708-6.351,16.842-14.757
		c0.604-4.508-0.578-8.979-3.337-12.592c-2.76-3.614-6.762-5.938-11.271-6.545C21.006,2.532,20.235,2.48,19.477,2.48"/>
</g>
<g id="Layer_2">
	<path fill="#FFFFFF" d="M19.998,7.819c-6.729,0-12.179,5.455-12.179,12.184c0,6.726,5.449,12.179,12.179,12.179
		c6.729,0,12.184-5.455,12.184-12.179C32.182,13.274,26.727,7.819,19.998,7.819z M21.916,21.92v5.75h-3.837v-5.75H12.33v-3.84h5.749
		v-5.75h3.839v5.75h5.753v3.84L21.916,21.92L21.916,21.92z"/>
</g>
</svg>
