<?xml version="1.0" encoding="utf-8"?>
<!-- Generator: Adobe Illustrator 15.1.0, SVG Export Plug-In . SVG Version: 6.00 Build 0)  -->
<!DOCTYPE svg PUBLIC "-//W3C//DTD SVG 1.1//EN" "http://www.w3.org/Graphics/SVG/1.1/DTD/svg11.dtd">
<svg version="1.1" id="Layer_1" xmlns="http://www.w3.org/2000/svg" xmlns:xlink="http://www.w3.org/1999/xlink" x="0px" y="0px"
	 width="40px" height="40px" viewBox="0 0 40 40" enable-background="new 0 0 40 40" xml:space="preserve">
<g id="Layer_1_1_" display="none">
	<path display="inline" d="M19.477,0c0.864,0,1.739,0.058,2.619,0.176c10.676,1.438,18.166,11.249,16.729,21.92
		c-1.32,9.789-9.691,16.902-19.301,16.902c-0.862,0-1.739-0.061-2.621-0.176C6.229,37.389-1.261,27.578,0.177,16.902
		C1.491,7.109,9.861,0,19.477,0 M19.477,2.48c-8.474,0-15.713,6.343-16.843,14.751C2.029,21.738,3.212,26.21,5.97,29.824
		c2.757,3.609,6.758,5.936,11.263,6.539c0.763,0.104,1.532,0.154,2.291,0.154c8.469,0,15.708-6.347,16.842-14.754
		c0.604-4.507-0.578-8.978-3.337-12.591c-2.76-3.614-6.762-5.938-11.27-6.545C21.006,2.532,20.235,2.48,19.477,2.48"/>
</g>
<g id="Layer_2">
	<path fill="#21759B" d="M19.996,0.333c-10.863,0-19.662,8.808-19.662,19.67c0,10.856,8.799,19.663,19.662,19.663
		s19.67-8.807,19.67-19.663C39.666,9.142,30.859,0.333,19.996,0.333z M23.531,23.537v10.596H16.46V23.537H5.867v-7.076H16.46V5.867
		h7.071v10.595h10.602v7.076L23.531,23.537L23.531,23.537z"/>
</g>
</svg>
