<?xml version="1.0" encoding="utf-8"?>
<!-- Generator: Adobe Illustrator 15.1.0, SVG Export Plug-In . SVG Version: 6.00 Build 0)  -->
<!DOCTYPE svg PUBLIC "-//W3C//DTD SVG 1.1//EN" "http://www.w3.org/Graphics/SVG/1.1/DTD/svg11.dtd">
<svg version="1.1" id="Layer_1" xmlns="http://www.w3.org/2000/svg" xmlns:xlink="http://www.w3.org/1999/xlink" x="0px" y="0px"
	 width="40px" height="40px" viewBox="0 0 40 40" enable-background="new 0 0 40 40" xml:space="preserve">
<g id="Layer_1_1_" display="none">
	<path display="inline" d="M19.477,0c0.864,0,1.739,0.058,2.619,0.176c10.676,1.438,18.166,11.249,16.729,21.92
		c-1.32,9.789-9.691,16.902-19.301,16.902c-0.862,0-1.739-0.061-2.621-0.176C6.229,37.389-1.261,27.578,0.177,16.902
		C1.491,7.109,9.861,0,19.477,0 M19.477,2.48c-8.474,0-15.713,6.343-16.843,14.751C2.029,21.738,3.212,26.21,5.97,29.824
		c2.757,3.609,6.758,5.936,11.263,6.539c0.763,0.104,1.532,0.154,2.291,0.154c8.469,0,15.708-6.347,16.842-14.754
		c0.604-4.507-0.578-8.978-3.337-12.591c-2.76-3.614-6.762-5.938-11.27-6.545C21.006,2.532,20.235,2.48,19.477,2.48"/>
</g>
<g id="Layer_2">
	<path fill="#1E8CBE" d="M39.854,15.428c-0.104-0.315-0.399-0.532-0.733-0.532H25.08L20.734,1.548
		c-0.104-0.316-0.401-0.532-0.733-0.532c-0.334,0-0.632,0.214-0.734,0.531l-4.371,13.349H0.882c-0.334,0-0.632,0.216-0.735,0.532
		c-0.103,0.317,0.01,0.667,0.279,0.863l11.342,8.262L7.397,37.975c-0.103,0.315,0.01,0.666,0.28,0.861
		c0.27,0.197,0.639,0.197,0.909,0L20,30.551l11.391,8.285c0.135,0.102,0.295,0.148,0.451,0.148c0.16,0,0.32-0.049,0.455-0.148
		c0.271-0.197,0.387-0.544,0.282-0.861l-4.372-13.422l11.365-8.261C39.844,16.097,39.955,15.745,39.854,15.428z"/>
</g>
</svg>
