<?xml version="1.0" encoding="utf-8"?>
<!-- Generator: Adobe Illustrator 15.0.2, SVG Export Plug-In . SVG Version: 6.00 Build 0)  -->
<!DOCTYPE svg PUBLIC "-//W3C//DTD SVG 1.0//EN" "http://www.w3.org/TR/2001/REC-SVG-20010904/DTD/svg10.dtd">
<svg version="1.0" id="Layer_1" xmlns="http://www.w3.org/2000/svg" xmlns:xlink="http://www.w3.org/1999/xlink" x="0px" y="0px"
	 width="40px" height="40px" viewBox="0 0 40 40" enable-background="new 0 0 40 40" xml:space="preserve">
<path fill="#FFFFFF" d="M35.742,3.45l-0.304-0.304c-1.939-1.941-4.508-2.923-7.049-2.92c-2.541-0.003-5.11,0.979-7.05,2.92
	l-2.941,2.94c-1.203,1.205-1.203,3.158,0.001,4.363c1.205,1.203,3.156,1.203,4.361,0l2.94-2.94c0.75-0.748,1.704-1.109,2.688-1.114
	c0.982,0.005,1.937,0.366,2.688,1.114l0.304,0.304c0.748,0.75,1.109,1.704,1.112,2.682c-0.003,0.987-0.366,1.942-1.114,2.694
	l-7.148,7.15c-0.75,0.746-1.71,1.109-2.715,1.112c-0.96-0.003-1.91-0.362-2.661-1.112l-0.305-0.305l-4.361,4.362l0.305,0.305
	c1.923,1.925,4.475,2.921,7.022,2.919h0.015c2.532,0,5.111-0.969,7.062-2.919l7.149-7.151c1.944-1.943,2.924-4.516,2.92-7.055
	C38.666,7.952,37.681,5.387,35.742,3.45z M17.38,29.412l-3.081,3.08c-0.75,0.747-1.709,1.11-2.715,1.114
	c-0.96-0.003-1.909-0.364-2.661-1.114L8.62,32.19c-0.749-0.751-1.11-1.708-1.113-2.698c0.003-0.976,0.364-1.928,1.113-2.678
	l7.15-7.151c0.75-0.748,1.705-1.109,2.688-1.114c0.982,0.004,1.937,0.366,2.688,1.114l0.304,0.305l4.361-4.363l0,0l0,0L25.507,15.3
	l-0.553-0.552c-0.236-0.237-0.502-0.426-0.785-0.57c-1.71-1.197-3.719-1.801-5.711-1.798c-2.541-0.003-5.111,0.98-7.049,2.921
	l-7.15,7.15c-1.937,1.934-2.924,4.499-2.921,7.04c-0.004,2.541,0.974,5.115,2.921,7.06l0.304,0.304
	c1.923,1.924,4.476,2.922,7.022,2.919H11.6c2.532,0,5.111-0.968,7.061-2.919l3.081-3.082c1.205-1.204,1.205-3.157,0-4.361
	C20.538,28.209,18.585,28.209,17.38,29.412z"/>
</svg>
