<?xml version="1.0" encoding="utf-8"?>
<!-- Generator: Adobe Illustrator 15.0.2, SVG Export Plug-In . SVG Version: 6.00 Build 0)  -->
<!DOCTYPE svg PUBLIC "-//W3C//DTD SVG 1.0//EN" "http://www.w3.org/TR/2001/REC-SVG-20010904/DTD/svg10.dtd">
<svg version="1.0" xmlns="http://www.w3.org/2000/svg" xmlns:xlink="http://www.w3.org/1999/xlink" x="0px" y="0px" width="35px"
	 height="35px" viewBox="1.178 0.116 35 35" enable-background="new 1.178 0.116 35 35" xml:space="preserve">
<g id="Layer_2_1_">
</g>
<g id="Layer_1">
	<g id="Layer_2">
		<path fill="#FFFFFF" d="M22.004,10.567c0.159,0.64,0.174,0.693,0.159,1.35c-0.005,0.254-0.151,1.426-0.111,1.785
			c0.032,0.296,0.106,0.319,0.223,0.562c0.204,0.427,0.135,1.012,0.058,1.44c-0.043,0.234-0.133,0.567-0.272,0.76
			c-0.149,0.21-0.453,0.211-0.588,0.458c-0.192,0.354-0.084,0.853-0.203,1.234c-0.139,0.432-0.492,0.463-0.516,1.033
			c0.17,0.023,0.343,0.049,0.516,0.073c0.171,0.367,0.488,1.105,0.811,1.327c0.271,0.074,0.542,0.147,0.812,0.222
			c0.949,0.389,2,0.853,2.95,1.254c0.866,0.364,1.901,0.495,2.216,1.402c0,0.614,0.057,2.071,0.041,2.877H9.259
			c-0.018-0.806,0.043-2.261,0.043-2.877c0.312-0.906,1.346-1.038,2.212-1.402c0.95-0.401,2.003-0.865,2.951-1.254
			c0.271-0.074,0.54-0.147,0.812-0.222c0.321-0.221,0.638-0.959,0.81-1.327l0.386-0.093c-0.088-0.485-0.387-0.524-0.513-0.864
			c-0.05-0.516-0.098-1.034-0.147-1.55c0.002,0.024-0.354-0.065-0.399-0.094c-0.501-0.314-0.511-1.59-0.561-2.119
			c-0.021-0.242,0.316-0.441,0.223-0.885c-0.549-2.603,0.238-3.82,1.48-4.223c0.861-0.351,2.476-0.999,3.977-0.074l0.374,0.348
			l0.604,0.104C21.811,9.985,22.004,10.567,22.004,10.567z"/>
	</g>
</g>
</svg>
