<?xml version="1.0" encoding="utf-8"?>
<!-- Generator: Adobe Illustrator 15.0.2, SVG Export Plug-In . SVG Version: 6.00 Build 0)  -->
<!DOCTYPE svg PUBLIC "-//W3C//DTD SVG 1.0//EN" "http://www.w3.org/TR/2001/REC-SVG-20010904/DTD/svg10.dtd">
<svg version="1.0" xmlns="http://www.w3.org/2000/svg" xmlns:xlink="http://www.w3.org/1999/xlink" x="0px" y="0px" width="35px"
	 height="35px" viewBox="1.178 0.116 35 35" enable-background="new 1.178 0.116 35 35" xml:space="preserve">
<g id="Layer_2_1_">
</g>
<g id="Layer_1">
	<path fill="#FFFFFF" d="M28.007,9.729H15.698v3.813h12.309V9.729z M28.007,15.739H15.698v3.813h12.309V15.739z M15.698,21.75v3.812
		h12.309V21.75H15.698z M11.345,9.67c-1.102,0-1.996,0.895-1.996,1.996c0,1.103,0.895,1.997,1.996,1.997
		c1.104,0,1.997-0.894,1.997-1.997C13.342,10.565,12.448,9.67,11.345,9.67z M11.345,15.412c-1.102,0-1.996,0.894-1.996,1.996
		c0,1.103,0.895,1.996,1.996,1.996c1.104,0,1.997-0.893,1.997-1.996C13.342,16.305,12.448,15.412,11.345,15.412z M11.345,21.555
		c-1.102,0-1.996,0.895-1.996,1.997s0.895,1.997,1.996,1.997c1.104,0,1.997-0.895,1.997-1.997
		C13.342,22.448,12.448,21.555,11.345,21.555z"/>
</g>
</svg>
