<?xml version="1.0" encoding="utf-8"?>
<!-- Generator: Adobe Illustrator 15.0.2, SVG Export Plug-In . SVG Version: 6.00 Build 0)  -->
<!DOCTYPE svg PUBLIC "-//W3C//DTD SVG 1.0//EN" "http://www.w3.org/TR/2001/REC-SVG-20010904/DTD/svg10.dtd">
<svg version="1.0" id="Layer_1" xmlns="http://www.w3.org/2000/svg" xmlns:xlink="http://www.w3.org/1999/xlink" x="0px" y="0px"
	 width="35px" height="35px" viewBox="0 0 35 35" enable-background="new 0 0 35 35" xml:space="preserve">
<g id="Layer_2_1_">
</g>
<g id="Layer_1_1_">
	<path fill="#FFFFFF" d="M12.603,25.536V9.317h6.265c1.647,0,0.854,3.901,0.854,3.901s3.801-0.924,3.853,0.822v5.265
		c0.385,0.006,0.756,0.062,1.106,0.163v-6.895l-4.041-4.04l-0.324-0.325h-8.82v18.437h9.105c-0.34-0.319-0.627-0.692-0.847-1.108
		H12.603z M23.475,20.079c-1.92,0-3.473,1.556-3.473,3.473c0,1.916,1.553,3.472,3.473,3.472c1.918,0,3.473-1.556,3.473-3.472
		C26.947,21.635,25.393,20.079,23.475,20.079z M24.098,24.177v1.871H22.85v-1.871h-1.871v-1.249h1.871v-1.873h1.248v1.871h1.873
		v1.249L24.098,24.177L24.098,24.177z"/>
</g>
</svg>
