<?xml version="1.0" encoding="utf-8"?>
<!-- Generator: Adobe Illustrator 15.0.2, SVG Export Plug-In . SVG Version: 6.00 Build 0)  -->
<!DOCTYPE svg PUBLIC "-//W3C//DTD SVG 1.0//EN" "http://www.w3.org/TR/2001/REC-SVG-20010904/DTD/svg10.dtd">
<svg version="1.0" id="Layer_1" xmlns="http://www.w3.org/2000/svg" xmlns:xlink="http://www.w3.org/1999/xlink" x="0px" y="0px"
	 width="40px" height="40px" viewBox="0 0 40 40" enable-background="new 0 0 40 40" xml:space="preserve">
<g id="Layer_1_1_">
	<path fill="#FFFFFF" d="M19.978,0.501c0.862,0,1.737,0.058,2.618,0.176C33.271,2.115,40.76,11.926,39.324,22.598
		c-1.32,9.788-9.691,16.901-19.301,16.901c-0.862,0-1.739-0.062-2.621-0.176C6.729,37.891-0.762,28.079,0.676,17.403
		C1.99,7.61,10.36,0.501,19.978,0.501 M19.978,2.981c-8.476,0-15.713,6.343-16.845,14.751c-0.604,4.507,0.578,8.979,3.338,12.593
		c2.757,3.608,6.758,5.936,11.263,6.539c0.763,0.104,1.532,0.153,2.291,0.153c8.469,0,15.708-6.346,16.842-14.754
		c0.604-4.506-0.578-8.977-3.337-12.59c-2.76-3.614-6.762-5.938-11.27-6.545C21.505,3.033,20.734,2.981,19.978,2.981"/>
</g>
</svg>
