<?xml version="1.0" encoding="utf-8"?>
<!-- Generator: Adobe Illustrator 15.0.2, SVG Export Plug-In . SVG Version: 6.00 Build 0)  -->
<!DOCTYPE svg PUBLIC "-//W3C//DTD SVG 1.0//EN" "http://www.w3.org/TR/2001/REC-SVG-20010904/DTD/svg10.dtd">
<svg version="1.0" id="Layer_1" xmlns="http://www.w3.org/2000/svg" xmlns:xlink="http://www.w3.org/1999/xlink" x="0px" y="0px"
	 width="40px" height="40px" viewBox="0 0 40 40" enable-background="new 0 0 40 40" xml:space="preserve">
<g id="Layer_1_1_">
	<path fill="#FFFFFF" d="M19.977,0.501c0.863,0,1.738,0.058,2.619,0.176C33.271,2.115,40.76,11.926,39.324,22.598
		c-1.32,9.788-9.691,16.901-19.301,16.901c-0.862,0-1.739-0.062-2.621-0.176C6.729,37.891-0.762,28.079,0.676,17.403
		C1.99,7.61,10.36,0.501,19.977,0.501 M19.977,2.981c-8.475,0-15.713,6.343-16.844,14.751c-0.604,4.507,0.578,8.979,3.337,12.593
		c2.757,3.608,6.758,5.936,11.263,6.539c0.763,0.104,1.532,0.153,2.291,0.153c8.469,0,15.708-6.346,16.842-14.754
		c0.604-4.506-0.578-8.977-3.337-12.59c-2.76-3.614-6.762-5.938-11.27-6.545C21.505,3.033,20.734,2.981,19.977,2.981"/>
</g>
<path fill="#FFFFFF" d="M19.739,17.768c0.002-0.004,0.004-0.006,0.006-0.008c-0.006-0.025-0.01-0.047-0.012-0.064
	C19.735,17.719,19.737,17.742,19.739,17.768z M24.79,23.281L24.79,23.281c-0.002-0.002-0.004-0.002-0.004-0.002
	S24.788,23.279,24.79,23.281z M24.919,23.297c-0.031-0.006-0.102,0.004-0.129-0.016C24.772,23.34,24.798,23.361,24.919,23.297z
	 M19.999,6.852c-7.26,0-13.146,5.887-13.146,13.148s5.887,13.148,13.146,13.148c7.262,0,13.148-5.887,13.148-13.148
	S27.261,6.852,19.999,6.852z M28.397,11.988c-0.453,0.014-0.768,0.014-1.131,0.266c-0.146,0.102-0.246,0.234-0.434,0.287
	c-0.166,0.047-0.346,0.006-0.512,0.062c-0.598,0.203-0.504,1.482-1.291,1.289c-0.369-0.09-0.629-0.527-0.816-0.812
	c-0.164-0.252-0.461-0.459-0.26-0.773c-0.092,0.023-0.189-0.004-0.281,0.014c0.127-0.277,0.549-0.252,0.619-0.395
	c0.176-0.354-0.482-0.391-0.668-0.441c0.225-0.238,0.338,0.082,0.561,0.027c0.213-0.053-0.113-0.332-0.24-0.365
	c-0.047-0.01-0.797,0.209-0.363-0.18c-0.535-0.342-1.07-0.684-1.605-1.025c-0.092,0.381,0.713,0.596,0.975,0.73
	c-0.041,0.156-0.285,0.385-0.473,0.318c-0.176-0.064-0.104-0.355-0.369-0.326c-0.189,0.441,0.4,0.312,0.455,0.582
	c0.062,0.309-0.223,0.178-0.332,0.174c-0.027-0.002-0.23-0.215-0.242-0.053c-0.014,0.189,0.326,0.115,0.35,0.309
	c-0.395,0.016-0.598-0.127-0.92-0.342c-0.377-0.25-0.568-0.227-1.031-0.227c0.139-0.057,0.328-0.1,0.447-0.191
	c0.064-0.049,0.316-0.295,0.334-0.35c0.07-0.236-0.004-0.219-0.23-0.373c-0.201-0.139-0.445-0.385-0.689-0.434
	c-0.883-0.178-0.273,0.797-0.943,0.932c0.012,0,0.023,0.002,0.033,0.002h-0.037c0-0.002,0.002-0.002,0.004-0.002
	c-0.154-0.006-0.445-0.043-0.547,0.039c-0.07,0.057-0.076,0.289-0.154,0.373c-0.141,0.148-0.35,0.178-0.518,0.287
	c-0.164,0.105-0.523,0.375-0.619,0.559c-0.355,0.676,0.797,0.887,1.232,1.084c0.197,0.09,0.773,0.211,0.881,0.361
	c0.145,0.199-0.123,0.389,0.178,0.529c0.096,0.045,0.293,0.053,0.377-0.039c0.135-0.152-0.055-0.186-0.088-0.361
	c-0.062-0.336,0.041-0.203,0.211-0.328c0.344-0.254,0.268-0.27,0.143-0.676c-0.059-0.189-0.275-0.717-0.084-0.855
	c0.25-0.184,0.781,0.098,0.973,0.121c0.223,0.027,0.35,0.336,0.471,0.463c0.08,0.082,0.225,0.26,0.365,0.242
	c0.225-0.031,0.131-0.227,0.26-0.316c0.348-0.242,0.439,0.086,0.578,0.414c0.131,0.307,0.254,0.422,0.486,0.619
	c0.107,0.092,0.58,0.42,0.535,0.621c-0.029,0.137-0.57,0.344-0.713,0.389c-0.527,0.168-1.518-0.273-1.623,0.564
	c0.203-0.076,0.785-0.553,0.961-0.328c0.078,0.104-0.064,0.252-0.029,0.354c0.1,0.305,0.334,0.199,0.58,0.148
	c-0.018,0.012-0.035,0.021-0.053,0.029c0.336-0.174,0.301-0.137,0.455-0.418c0.051-0.092,0.127-0.312,0.197-0.379
	c0.244-0.225,0.283-0.07,0.434,0.104c0.039,0.047,0.414,0.584,0.281,0.559c-0.436-0.088-0.854-0.076-1.215,0.162
	c-0.209,0.137-0.406,0.322-0.654,0.414c-0.059,0.021-0.5,0.064-0.449-0.012c0.076-0.109,0.338-0.182,0.441-0.301
	c-0.285-0.117-0.525,0.143-0.75,0.295c-0.238,0.113-0.295,0.324-0.498,0.51c-0.09,0.08-0.258,0.094-0.344,0.199
	c-0.086,0.104-0.096,0.266-0.176,0.363c-0.057,0.068-0.201,0.025-0.26,0.129c-0.076,0.135,0.07,0.26,0.039,0.357
	c-0.059,0.176-0.395,0.326-0.523,0.453c0.018-0.018,0.033-0.035,0.051-0.051c-0.129,0.135-0.293,0.234-0.393,0.391
	c0.045,0.223,0.191,0.75,0.15,0.871c-0.133,0.4-0.395-0.217-0.5-0.377c-0.363-0.547-1.092-0.18-1.588-0.135
	c-0.635,0.057-1.256,0.883-0.865,1.551c0.188,0.32,0.504,0.445,0.867,0.371c0.322-0.066,0.42-0.518,0.725-0.527
	c0.559-0.014,0.012,0.549-0.037,0.754c-0.045,0.191,0.07,0.211,0.268,0.258c0.145,0.033,0.352-0.062,0.477,0.02
	c0.08,0.053,0.076,0.34,0.186,0.25c-0.215,0.178-0.166,0.6,0.055,0.752c0.244,0.17,0.533,0.014,0.787,0.078
	c0.484,0.123,0.254-0.037,0.678-0.293c0.285-0.172,0.332,0.033,0.529,0.033c0.133,0.002,0.217-0.191,0.439-0.135
	c0.182,0.045,0.254,0.186,0.469,0.217c0.09,0.014,0.182-0.033,0.266-0.023c0.4,0.045,0.709,0.301,1.023,0.531
	c0.26,0.191,0.434,0.152,0.736,0.24c0.223,0.062,0.633,0.385,0.611,0.666c-0.004,0.051-0.197,0.305-0.23,0.42
	c0.057,0.039,0.451-0.049,0.568-0.059c-0.039,0.045-0.309,0.234-0.309,0.133c0,0.053,0.191,0.158,0.236,0.191
	c0.141-0.457,0.371-0.164,0.648-0.051c0.236,0.096,0.527,0.102,0.779,0.162c0.213,0.051,0.684,0.195,0.844,0.369
	c0.189,0.209,0.059,0.551-0.084,0.76c-0.184,0.275-0.461,0.379-0.576,0.703c-0.092,0.254-0.023,0.514-0.076,0.797
	c-0.07,0.383-0.125,0.248-0.373,0.482c-0.207,0.197-0.004,0.162-0.285,0.289c-0.285,0.125-0.535,0.088-0.732,0.4
	c0.008-0.02,0.016-0.039,0.02-0.061c-0.082,0.117-0.123,0.354-0.164,0.432c-0.098,0.199-0.234,0.326-0.393,0.492
	c-0.061,0.062-0.613,0.818-0.645,0.758c-0.041-0.08-0.477,0.078-0.498-0.033c0.018,0.094-0.004,0.062,0.105,0.117
	c-0.102,0.621-0.363,0.713-0.973,0.719c0.053,0.299-0.221,0.238-0.348,0.398c-0.074,0.096-0.109,0.357-0.162,0.479
	c-0.031,0.076-0.27,0.383-0.27,0.443c0,0.055,0.08,0.137,0.156,0.215c-0.43,0.084-0.869,0.145-1.314,0.18
	c0.084-0.105,0.104-0.197-0.16-0.209c0.07-0.193,0.236-0.303,0.307-0.49c0.035-0.088,0.006-0.123,0.035-0.209
	c0.098-0.303,0.055-0.189,0-0.424c-0.129-0.549,0.045-0.697,0.195-1.201c0.154-0.516,0.139-1.186,0.238-1.742
	c0.047-0.266,0.123-0.82,0.029-1.072c-0.104-0.283-0.562-0.506-0.771-0.697c-0.297-0.27-0.455-0.562-0.676-0.898
	c-0.111-0.168-0.24-0.336-0.326-0.52c-0.188-0.396,0-0.16,0.031-0.395c0.029-0.225-0.027-0.426,0.062-0.662
	c0.098-0.262,0.346-0.426,0.428-0.689c0.072-0.234,0.016-0.529-0.225-0.607c-0.135-0.043-0.283,0.057-0.418,0.035
	c-0.188-0.031-0.4-0.172-0.549-0.283c-0.207-0.158-0.283-0.412-0.504-0.561c-0.184-0.125-0.314-0.051-0.51-0.109
	c-0.205-0.061-0.332-0.312-0.498-0.393c-0.248-0.119-0.389,0.053-0.65,0.018c-0.223-0.029-0.562-0.277-0.771-0.369
	c-0.424-0.189-0.682-0.398-0.85-0.83c-0.146-0.367-0.357-0.539-0.605-0.848c-0.254-0.311-0.332-0.574-0.721-0.658
	c-0.047-0.01,0.096,0.326,0.109,0.354c0.139,0.258,0.348,0.492,0.516,0.732c0.246,0.352,0.141,0.418-0.109,0.078
	c-0.287-0.391-0.621-0.779-0.869-1.193c-0.096-0.156-0.076-0.256-0.232-0.404c-0.15-0.145-0.346-0.213-0.498-0.35
	c-0.543-0.49-0.643-1.143-0.58-1.84c0.02-0.227,0.102-0.408,0.066-0.627c-0.031-0.182-0.137-0.332-0.271-0.465
	c-0.043-0.068-0.15-0.238-0.158-0.25c-0.123-0.203-0.219-0.406-0.414-0.574c-0.113-0.096-0.404-0.324-0.68-0.514
	c1.232-1.535,2.844-2.754,4.693-3.51c0.016,0.094,0.055,0.186,0.115,0.275c0.15,0.225,0.297,0.207,0.592,0.27
	c-0.031,0.344-0.434,0.348-0.705,0.311c-0.326-0.045-0.668-0.152-0.949,0.133c0.154,0.092,0.582,0.457,0.525,0.076
	c0.311-0.016,0.613-0.025,0.918,0.012c0.121,0.016,0.531,0.152,0.643,0.09c0.045-0.025,0.096-0.256,0.145-0.326
	c-0.086,0-0.18-0.043-0.266-0.035c0.201-0.258,0.402-0.055,0.658,0.062c-0.281,0.174-0.115,0.584,0.162,0.25
	c0.227-0.275-0.055-0.475-0.344-0.635c0.291-0.363,0.471-0.396,0.744,0.014c0.045-0.254,0.25-0.152,0.463-0.133V9.52
	c-0.094,0.004-0.195-0.051-0.287-0.041c0.217-0.348,0.078-0.426,0.389-0.541c0.248-0.09,0.955-0.006,1.043-0.238
	c-0.496,0.096-1.094,0.119-1.539,0.344c-0.193,0.098-0.422,0.404-0.613,0.205c-0.197-0.205,0.141-0.533,0.312-0.633h-0.041
	c0.783-0.166,1.594-0.256,2.424-0.256c0.539,0,1.066,0.039,1.584,0.111c-0.18,0.094-0.047,0.156-0.176,0.254
	c-0.25,0.184-0.693,0.336-0.99,0.451c0.377,0,1.291,0.355,1.467-0.174c-0.121-0.02-0.244-0.039-0.365-0.057
	c0.227-0.15,0.48-0.273,0.748-0.363c2.402,0.477,4.539,1.695,6.166,3.406C28.421,11.988,28.409,11.988,28.397,11.988z
	 M30.526,16.604c0.021-0.045,0.072-0.061,0.094-0.1c0.043-0.08,0.033-0.135,0.088-0.203c0.057-0.074,0.135-0.092,0.199-0.15
	c0.027-0.023,0.041-0.045,0.053-0.066c0.195,0.541,0.35,1.1,0.461,1.674c-0.002,0.006-0.004,0.012-0.01,0.016
	c-0.027,0.021-0.211,0.049-0.25,0.051c-0.133,0.004-0.232-0.084-0.328-0.168c-0.098-0.084-0.213-0.197-0.281-0.307
	c-0.074-0.117-0.027-0.238-0.023-0.371C30.532,16.865,30.478,16.705,30.526,16.604z M30.677,22.633
	c-0.227-0.197-0.492-0.459-0.652-0.713c-0.172-0.271-0.066-0.551-0.055-0.861c0.012-0.262-0.117-0.633-0.006-0.867
	c0.051-0.107,0.168-0.143,0.217-0.23c0.102-0.186,0.078-0.312,0.203-0.473c0.135-0.172,0.316-0.213,0.467-0.348
	c0.156-0.143,0.152-0.254,0.252-0.436c0.072-0.131,0.242-0.352,0.404-0.467C31.595,18.812,31.64,19.4,31.64,20
	c0,1.035-0.137,2.039-0.393,2.996C31.03,22.941,30.851,22.783,30.677,22.633z"/>
</svg>
