<?xml version="1.0" encoding="utf-8"?>
<!-- Generator: Adobe Illustrator 15.0.2, SVG Export Plug-In . SVG Version: 6.00 Build 0)  -->
<!DOCTYPE svg PUBLIC "-//W3C//DTD SVG 1.0//EN" "http://www.w3.org/TR/2001/REC-SVG-20010904/DTD/svg10.dtd">
<svg version="1.0" id="Layer_1" xmlns="http://www.w3.org/2000/svg" xmlns:xlink="http://www.w3.org/1999/xlink" x="0px" y="0px"
	 width="40px" height="40px" viewBox="0 0 40 40" enable-background="new 0 0 40 40" xml:space="preserve">
<g id="Layer_1_1_" display="none">
	<path display="inline" d="M19.477,0c0.864,0,1.739,0.058,2.619,0.176c10.676,1.438,18.165,11.249,16.729,21.92
		c-1.32,9.789-9.691,16.902-19.301,16.902c-0.862,0-1.739-0.061-2.621-0.176C6.229,37.389-1.261,27.578,0.177,16.902
		C1.491,7.109,9.861,0,19.477,0 M19.477,2.48c-8.474,0-15.713,6.343-16.843,14.751C2.029,21.738,3.212,26.21,5.97,29.824
		c2.757,3.609,6.758,5.936,11.263,6.539c0.763,0.104,1.532,0.154,2.291,0.154c8.469,0,15.708-6.348,16.842-14.754
		c0.604-4.508-0.578-8.979-3.337-12.592c-2.76-3.614-6.762-5.938-11.271-6.545C21.006,2.532,20.235,2.48,19.477,2.48"/>
</g>
<path fill="#FFFFFF" d="M25.684,14.388c-4.131,0-7.475,3.345-7.475,7.473c0,4.127,3.344,7.474,7.475,7.474
	c4.127,0,7.473-3.347,7.473-7.474C33.154,17.733,29.811,14.388,25.684,14.388z M25.684,26.247c-2.423,0-4.388-1.964-4.388-4.386
	c0-2.422,1.965-4.386,4.388-4.386c2.42,0,4.385,1.963,4.385,4.386C30.068,24.283,28.104,26.247,25.684,26.247z M14.095,8.097
	L12.001,5.69H5.86L3.767,8.097h-3.82v26.213h40.105V8.097H14.095z M12.549,13.331H6.84c-0.676,0-1.222-0.547-1.222-1.222
	c0-0.675,0.546-1.223,1.222-1.223h5.709c0.675,0,1.222,0.548,1.222,1.223C13.771,12.784,13.224,13.331,12.549,13.331z
	 M25.684,31.625c-5.386,0-9.766-4.38-9.766-9.764c0-5.384,4.38-9.764,9.766-9.764c5.383,0,9.764,4.38,9.764,9.764
	C35.445,27.245,31.064,31.625,25.684,31.625z M37.965,12.467c0,0.358-0.291,0.648-0.65,0.648h-1.502
	c-0.356,0-0.647-0.29-0.647-0.648v-1.505c0-0.358,0.291-0.648,0.647-0.648h1.502c0.359,0,0.65,0.29,0.65,0.648V12.467z"/>
</svg>
