<?xml version="1.0" encoding="utf-8"?>
<!-- Generator: Adobe Illustrator 15.0.2, SVG Export Plug-In . SVG Version: 6.00 Build 0)  -->
<!DOCTYPE svg PUBLIC "-//W3C//DTD SVG 1.0//EN" "http://www.w3.org/TR/2001/REC-SVG-20010904/DTD/svg10.dtd">
<svg version="1.0" id="Layer_1" xmlns="http://www.w3.org/2000/svg" xmlns:xlink="http://www.w3.org/1999/xlink" x="0px" y="0px"
	 width="40px" height="40px" viewBox="0 0 40 40" enable-background="new 0 0 40 40" xml:space="preserve">
<path fill="#FFFFFF" d="M9.942,4.604C8.029,5.653,6.379,6.975,5.005,8.571c-1.383,1.595-2.447,3.445-3.207,5.539
	c-0.697,1.915-1.041,3.954-1.041,6.108c0,0.206,0.002,0.411,0.01,0.62v16.628h15.901V20.291H9.68
	c0.053-2.371,0.534-4.361,1.429-5.989c0.923-1.682,2.648-2.98,5.271-3.881l0.289-0.099V2.534l-0.48,0.062
	C13.944,2.885,11.861,3.556,9.942,4.604z M38.954,10.421l0.288-0.099V2.534l-0.484,0.062c-2.239,0.289-4.326,0.959-6.243,2.008
	C30.6,5.653,28.95,6.975,27.576,8.571c-1.38,1.595-2.45,3.445-3.206,5.539c-0.696,1.915-1.042,3.954-1.042,6.105
	c0,0.209,0.004,0.414,0.01,0.623v16.628h15.904V20.291h-6.99c0.052-2.371,0.534-4.361,1.429-5.989
	C34.602,12.62,36.33,11.321,38.954,10.421z"/>
</svg>
