<?xml version="1.0" encoding="utf-8"?>
<!-- Generator: Adobe Illustrator 15.0.2, SVG Export Plug-In . SVG Version: 6.00 Build 0)  -->
<!DOCTYPE svg PUBLIC "-//W3C//DTD SVG 1.0//EN" "http://www.w3.org/TR/2001/REC-SVG-20010904/DTD/svg10.dtd">
<svg version="1.0" xmlns="http://www.w3.org/2000/svg" xmlns:xlink="http://www.w3.org/1999/xlink" x="0px" y="0px" width="35px"
	 height="35px" viewBox="1.178 0.116 35 35" enable-background="new 1.178 0.116 35 35" xml:space="preserve">
<g id="Layer_2_1_">
</g>
<g id="Layer_1">
	<g id="Layer_2">
		<path fill="#FFFFFF" d="M18.856,8.057c0.002,0,0.006,0,0.008,0c0.001,0,0.003,0,0.005,0H18.856z M28.739,17.998
			c-0.003-5.459-4.405-9.9-9.874-9.941c-0.03,0-0.055,0-0.072,0c-2.814,0-5.366,1.176-7.173,3.061L9.259,8.726v6.947h6.859
			l-2.381-2.412c1.269-1.353,3.059-2.196,5.057-2.196c0.02,0,0.03,0,0.035,0h0.013c3.813,0.023,6.891,3.125,6.891,6.933
			c0,0.003-0.002,0.022,0,0.057c-0.03,3.808-3.129,6.88-6.935,6.879c-0.013,0-0.032,0-0.058,0l0.008,3.01c0.008,0,0.025,0,0.05,0
			c5.461-0.002,9.904-4.407,9.944-9.879v-0.018v-0.019C28.739,18.021,28.739,18.012,28.739,17.998z"/>
	</g>
</g>
</svg>
