<?xml version="1.0" encoding="utf-8"?>
<!-- Generator: Adobe Illustrator 15.0.2, SVG Export Plug-In . SVG Version: 6.00 Build 0)  -->
<!DOCTYPE svg PUBLIC "-//W3C//DTD SVG 1.0//EN" "http://www.w3.org/TR/2001/REC-SVG-20010904/DTD/svg10.dtd">
<svg version="1.0" id="Layer_1" xmlns="http://www.w3.org/2000/svg" xmlns:xlink="http://www.w3.org/1999/xlink" x="0px" y="0px"
	 width="40px" height="40px" viewBox="0 0 40 40" enable-background="new 0 0 40 40" xml:space="preserve">
<path fill="#FFFFFF" d="M10.777,28.578c-0.326,0.327-0.49,0.752-0.49,1.181c0,0.428,0.164,0.854,0.49,1.181s0.752,0.489,1.18,0.489
	c0.424,0,0.842-0.158,1.17-0.477l6.568-8.234l-1.436-1.623L10.777,28.578z M31.652,9.442l-0.869-0.871L20.268,19.086l3.287,2.905
	c0.09-0.054,0.174-0.117,0.25-0.191l7.848-10.391c0.312-0.312,0.408-0.628,0.408-0.983C32.061,10.068,31.926,9.714,31.652,9.442z
	 M18.582,18.396l0.844-0.844c0.449-0.449,0.342-1.287-0.242-1.872l-6.912-6.912l-0.852,0.85l6.109,6.108l-0.869,0.87l-6.109-6.108
	l-0.893,0.891l6.109,6.109l-0.871,0.869l-6.107-6.107l-0.85,0.85l6.914,6.913c0.584,0.584,1.422,0.692,1.871,0.243l0.844-0.844
	l10.186,11.533c0.326,0.32,0.748,0.48,1.172,0.48c0.43,0,0.855-0.162,1.182-0.489c0.328-0.327,0.488-0.752,0.488-1.181
	c0-0.425-0.16-0.848-0.48-1.174L18.582,18.396z"/>
</svg>
