<?xml version="1.0" encoding="utf-8"?>
<!-- Generator: Adobe Illustrator 15.0.2, SVG Export Plug-In . SVG Version: 6.00 Build 0)  -->
<!DOCTYPE svg PUBLIC "-//W3C//DTD SVG 1.0//EN" "http://www.w3.org/TR/2001/REC-SVG-20010904/DTD/svg10.dtd">
<svg version="1.0" id="Layer_1" xmlns="http://www.w3.org/2000/svg" xmlns:xlink="http://www.w3.org/1999/xlink" x="0px" y="0px"
	 width="40px" height="40px" viewBox="0 0 40 40" enable-background="new 0 0 40 40" xml:space="preserve">
<path fill="#FFFFFF" d="M15.591,16.247c1.231-1.232,1.843-2.861,1.844-4.568c0-0.398-0.035-0.801-0.104-1.199
	c-3.553,0.994-6.299,3.92-7.027,7.576c0.24,0.025,0.479,0.037,0.717,0.037C12.727,18.091,14.356,17.479,15.591,16.247z
	 M23.752,24.411c-1.232,1.232-1.843,2.861-1.843,4.566c-0.002,0.24,0.01,0.479,0.034,0.721c3.657-0.73,6.585-3.477,7.579-7.029
	c-0.401-0.068-0.804-0.104-1.203-0.104C26.614,22.567,24.985,23.177,23.752,24.411z M20.001,10.11c-0.412,0-0.812,0.029-1.209,0.077
	c0.086,0.497,0.132,0.995,0.132,1.491c0.001,2.062-0.751,4.094-2.28,5.623c-1.527,1.527-3.558,2.279-5.616,2.279h-0.007
	c-0.299,0-0.598-0.018-0.897-0.047c-0.007,0.154-0.012,0.309-0.012,0.467c0,5.463,4.427,9.889,9.89,9.889
	c0.155,0,0.311-0.006,0.465-0.012c-0.031-0.299-0.047-0.6-0.047-0.9c-0.002-2.061,0.75-4.092,2.279-5.621l0,0
	c1.529-1.529,3.562-2.283,5.621-2.279c0.498,0,0.998,0.045,1.494,0.131c0.047-0.395,0.075-0.799,0.075-1.207
	C29.889,14.538,25.462,10.11,20.001,10.11z"/>
</svg>
