<?xml version="1.0" encoding="utf-8"?>
<!-- Generator: Adobe Illustrator 15.0.2, SVG Export Plug-In . SVG Version: 6.00 Build 0)  -->
<!DOCTYPE svg PUBLIC "-//W3C//DTD SVG 1.0//EN" "http://www.w3.org/TR/2001/REC-SVG-20010904/DTD/svg10.dtd">
<svg version="1.0" id="Layer_1" xmlns="http://www.w3.org/2000/svg" xmlns:xlink="http://www.w3.org/1999/xlink" x="0px" y="0px"
	 width="40px" height="40px" viewBox="0 0 40 40" enable-background="new 0 0 40 40" xml:space="preserve">
<g>
	<g>
		<path fill="#FFFFFF" d="M19.999,7.015c-7.172,0-12.984,5.812-12.984,12.984c0,7.17,5.812,12.985,12.984,12.985
			s12.985-5.815,12.985-12.985C32.984,12.827,27.171,7.015,19.999,7.015z M21.729,15.654c0-0.782,0.633-1.415,1.414-1.415
			s1.414,0.633,1.414,1.415v2.935c0,0.781-0.633,1.414-1.414,1.414s-1.414-0.633-1.414-1.414V15.654z M15.44,15.654
			c0-0.782,0.633-1.415,1.414-1.415s1.416,0.633,1.416,1.415v2.935c0,0.781-0.635,1.414-1.416,1.414s-1.414-0.633-1.414-1.414
			V15.654z M28.275,24.419c-0.145,0.146-0.334,0.22-0.524,0.22s-0.383-0.072-0.526-0.22l-0.236-0.237
			c-0.271,0.44-0.672,1-1.225,1.565c-1.152,1.19-3.019,2.401-5.663,2.401h-0.012c-2.65,0.002-4.557-1.209-5.756-2.393
			c-0.58-0.57-1.004-1.135-1.291-1.574l-0.268,0.267c-0.145,0.146-0.336,0.219-0.525,0.219c-0.191,0-0.381-0.072-0.527-0.219
			c-0.289-0.289-0.289-0.763,0-1.054l1.525-1.523c0.291-0.292,0.762-0.292,1.053,0c0.291,0.29,0.291,0.763,0,1.053l-0.246,0.245
			c1.707,1.467,3.822,2.2,5.943,2.2c2.129,0,4.252-0.739,5.965-2.212l-0.264-0.265c-0.291-0.291-0.291-0.763,0-1.053
			s0.762-0.29,1.053,0l1.524,1.524C28.566,23.657,28.566,24.129,28.275,24.419z"/>
	</g>
</g>
</svg>
