<?xml version="1.0" encoding="utf-8"?>
<!-- Generator: Adobe Illustrator 15.0.2, SVG Export Plug-In . SVG Version: 6.00 Build 0)  -->
<!DOCTYPE svg PUBLIC "-//W3C//DTD SVG 1.0//EN" "http://www.w3.org/TR/2001/REC-SVG-20010904/DTD/svg10.dtd">
<svg version="1.0" id="Layer_1" xmlns="http://www.w3.org/2000/svg" xmlns:xlink="http://www.w3.org/1999/xlink" x="0px" y="0px"
	 width="40px" height="40px" viewBox="0 0 40 40" enable-background="new 0 0 40 40" xml:space="preserve">
<path fill="#FFFFFF" d="M20,17.488c-1.344,0-2.438,1.093-2.438,2.436c0,1.344,1.094,2.438,2.438,2.438s2.438-1.094,2.438-2.438
	C22.438,18.581,21.344,17.488,20,17.488z M20,12.976C13.539,12.976,7.033,20,7.033,20S13.539,27.024,20,27.024S32.967,20,32.967,20
	S26.461,12.976,20,12.976z M20,24.896c-2.746,0-4.973-2.225-4.973-4.973c0-2.746,2.227-4.97,4.973-4.97s4.971,2.225,4.971,4.97
	C24.971,22.672,22.746,24.896,20,24.896z"/>
</svg>
