<?xml version="1.0" encoding="utf-8"?>
<!-- Generator: Adobe Illustrator 15.0.2, SVG Export Plug-In . SVG Version: 6.00 Build 0)  -->
<!DOCTYPE svg PUBLIC "-//W3C//DTD SVG 1.0//EN" "http://www.w3.org/TR/2001/REC-SVG-20010904/DTD/svg10.dtd">
<svg version="1.0" id="Layer_1" xmlns="http://www.w3.org/2000/svg" xmlns:xlink="http://www.w3.org/1999/xlink" x="0px" y="0px"
	 width="40px" height="40px" viewBox="0 0 40 40" enable-background="new 0 0 40 40" xml:space="preserve">
<path fill="#FFFFFF" d="M7.042,27.627h14.725V14.025H7.042V27.627z M7.042,30.809c0,0.799,0.646,1.443,1.443,1.443h11.838
	c0.797,0,1.444-0.645,1.444-1.443v-1.35H7.042V30.809z M20.324,9.318h-2.99v-1.57h-5.857v1.57h-2.99
	c-0.797,0-1.443,0.645-1.443,1.443v1.435h14.725v-1.435C21.768,9.963,21.121,9.318,20.324,9.318z M23.445,12.469v16.959h9.512
	V12.469H23.445z M27.084,28.23h-2.031v-2.029h2.031V28.23z M27.084,15.697h-2.031v-2.033h2.031V15.697z M31.244,28.23h-2.031v-2.029
	h2.031V28.23z M31.244,15.697h-2.031v-2.033h2.031V15.697z"/>
</svg>
