<?xml version="1.0" encoding="utf-8"?>
<!-- Generator: Adobe Illustrator 15.0.2, SVG Export Plug-In . SVG Version: 6.00 Build 0)  -->
<!DOCTYPE svg PUBLIC "-//W3C//DTD SVG 1.0//EN" "http://www.w3.org/TR/2001/REC-SVG-20010904/DTD/svg10.dtd">
<svg version="1.0" id="Layer_1" xmlns="http://www.w3.org/2000/svg" xmlns:xlink="http://www.w3.org/1999/xlink" x="0px" y="0px"
	 width="40px" height="40px" viewBox="0 0 40 40" enable-background="new 0 0 40 40" xml:space="preserve">
<path fill="#FFFFFF" d="M32.3,9.15H7.7c-0.406,0-0.736,0.329-0.736,0.737v16.824c0,0.406,0.33,0.736,0.736,0.736h24.6
	c0.408,0,0.736-0.33,0.736-0.736V9.887C33.036,9.479,32.708,9.15,32.3,9.15z M25.972,21.531c0,0.762-0.525,1.723-1.168,2.133
	c0,0-2.5,1.6-7.023,1.6c-4.521,0-7.021-1.6-7.021-1.6c-0.643-0.41-1.168-1.371-1.168-2.133v-6.437c0-0.764,0.525-1.724,1.168-2.135
	c0,0,2.5-1.6,7.021-1.6c4.523,0,7.023,1.6,7.023,1.6c0.643,0.411,1.168,1.371,1.168,2.135V21.531z M29.774,18.944
	c-0.619,0-1.121-0.502-1.121-1.121s0.502-1.119,1.121-1.119s1.119,0.5,1.119,1.119S30.394,18.944,29.774,18.944z M29.774,15.051
	c-0.619,0-1.121-0.502-1.121-1.119c0-0.619,0.502-1.121,1.121-1.121s1.119,0.502,1.119,1.121
	C30.894,14.549,30.394,15.051,29.774,15.051z M11.058,30.85h17.176v-1.83H11.058V30.85z"/>
</svg>
