<?xml version="1.0" encoding="utf-8"?>
<!-- Generator: Adobe Illustrator 15.0.2, SVG Export Plug-In . SVG Version: 6.00 Build 0)  -->
<!DOCTYPE svg PUBLIC "-//W3C//DTD SVG 1.0//EN" "http://www.w3.org/TR/2001/REC-SVG-20010904/DTD/svg10.dtd">
<svg version="1.0" id="Layer_1" xmlns="http://www.w3.org/2000/svg" xmlns:xlink="http://www.w3.org/1999/xlink" x="0px" y="0px"
	 width="40px" height="40px" viewBox="0 0 40 40" enable-background="new 0 0 40 40" xml:space="preserve">
<path fill="#FFFFFF" d="M24.827,8.523h-9.656c-0.924,0-1.672,0.75-1.672,1.672v19.609c0,0.924,0.748,1.672,1.672,1.672h9.656
	c0.926,0,1.674-0.748,1.674-1.672V10.195C26.501,9.273,25.753,8.523,24.827,8.523z M18.907,9.947h2.186v0.727h-2.186V9.947z
	 M20.001,30.6c-0.588,0-1.066-0.477-1.066-1.066c0-0.588,0.479-1.064,1.066-1.064s1.064,0.477,1.064,1.064
	C21.065,30.123,20.589,30.6,20.001,30.6z M25.249,27.797H14.753V12.205h10.496V27.797z"/>
</svg>
