<?xml version="1.0" encoding="utf-8"?>
<!-- Generator: Adobe Illustrator 15.0.2, SVG Export Plug-In . SVG Version: 6.00 Build 0)  -->
<!DOCTYPE svg PUBLIC "-//W3C//DTD SVG 1.0//EN" "http://www.w3.org/TR/2001/REC-SVG-20010904/DTD/svg10.dtd">
<svg version="1.0" id="Layer_1" xmlns="http://www.w3.org/2000/svg" xmlns:xlink="http://www.w3.org/1999/xlink" x="0px" y="0px"
	 width="40px" height="40px" viewBox="0 0 40 40" enable-background="new 0 0 40 40" xml:space="preserve">
<path fill="#FFFFFF" d="M30.944,8.229c-0.756,0.29-1.584,0.63-2.225,1.14l-4.479,3.79l-13.738-2.905l-1.674,1.651l10.578,6.031
	l-5.305,6.416l-4.195-1.283L8.12,24.736l3.988,2.027l-0.355,0.428c-0.191,0.193-0.18,0.801,0.002,1.02
	c0.217,0.184,0.828,0.195,1.021,0.002l0.439-0.355l2.039,4.012l1.668-1.785l-1.283-4.186l6.432-5.195l5.893,10.336l1.65-1.676
	l-2.842-13.449l3.863-4.618c0.504-0.644,0.846-1.472,1.143-2.226C32.075,8.318,31.7,7.938,30.944,8.229z M11.772,28.23
	c-0.006-0.006-0.012-0.014-0.018-0.02s-0.012-0.012-0.02-0.016L11.772,28.23z"/>
</svg>
