<?xml version="1.0" encoding="utf-8"?>
<!-- Generator: Adobe Illustrator 15.0.2, SVG Export Plug-In . SVG Version: 6.00 Build 0)  -->
<!DOCTYPE svg PUBLIC "-//W3C//DTD SVG 1.0//EN" "http://www.w3.org/TR/2001/REC-SVG-20010904/DTD/svg10.dtd">
<svg version="1.0" id="Layer_1" xmlns="http://www.w3.org/2000/svg" xmlns:xlink="http://www.w3.org/1999/xlink" x="0px" y="0px"
	 width="40px" height="40px" viewBox="0 0 40 40" enable-background="new 0 0 40 40" xml:space="preserve">
<path fill="#FFFFFF" d="M14.093,31.998h9.773V8.002h-9.773V31.998z M22.423,28.629h-2.611v-2.611h2.611V28.629z M17.563,24.719
	v-2.609h2.611v2.609H17.563z M22.423,20.811h-2.611v-2.611h2.611V20.811z M17.563,16.9v-2.611h2.611V16.9H17.563z M19.812,10.381
	h2.611v2.609h-2.611V10.381z M15.315,10.381h2.611v2.609h-2.611V10.381z M15.315,18.199h2.611v2.611h-2.611V18.199z M15.315,26.018
	h2.611v2.611h-2.611V26.018z M6.86,31.998h5.857v-16.41H6.86V31.998z M8.483,16.877h2.611v2.611H8.483V16.877z M8.483,21.518h2.611
	v2.611H8.483V21.518z M8.483,25.979h2.611v2.609H8.483V25.979z M31.981,17.9v-3.119h-1.42V11.74H29.54V8.908h-0.857v2.832h-1.02
	v3.041h-1.422V17.9h-1.156v14.098h8.055V17.9H31.981z M29.028,30.205h-2.611v-2.611h2.611V30.205z M29.028,22.201h-2.611V19.59
	h2.611V22.201z M32.093,26.17h-2.611v-2.611h2.611V26.17z"/>
</svg>
