<?xml version="1.0" encoding="utf-8"?>
<!-- Generator: Adobe Illustrator 15.0.2, SVG Export Plug-In . SVG Version: 6.00 Build 0)  -->
<!DOCTYPE svg PUBLIC "-//W3C//DTD SVG 1.0//EN" "http://www.w3.org/TR/2001/REC-SVG-20010904/DTD/svg10.dtd">
<svg version="1.0" id="Layer_1" xmlns="http://www.w3.org/2000/svg" xmlns:xlink="http://www.w3.org/1999/xlink" x="0px" y="0px"
	 width="40px" height="40px" viewBox="0 0 40 40" enable-background="new 0 0 40 40" xml:space="preserve">
<path fill="#FFFFFF" d="M33.3,13.719c-0.035-0.057-0.617-1.072-1.787-2.117c-1.162-1.037-2.963-2.119-5.338-2.119
	c-2.373-0.002-4.156,1.086-5.297,2.127c-0.352,0.322-0.648,0.643-0.891,0.932c-0.252-0.291-0.559-0.613-0.924-0.939
	c-1.162-1.037-2.965-2.119-5.338-2.119c-2.373-0.002-4.158,1.086-5.297,2.127c-1.146,1.049-1.703,2.066-1.738,2.129l-0.121,0.469
	v15.33l1.838,0.469l0.004,0.002c0.025-0.051,0.52-0.9,1.424-1.697c0.914-0.801,2.188-1.537,3.891-1.539
	c1.758,0.002,3.094,0.791,4.035,1.625c0.467,0.414,0.824,0.836,1.059,1.146c0.117,0.154,0.205,0.283,0.26,0.367
	c0.027,0.043,0.047,0.074,0.059,0.094c0.006,0.01,0.01,0.016,0.012,0.02l0,0l0,0h0.002c0.168,0.295,0.484,0.494,0.85,0.494
	c0.371,0,0.693-0.207,0.859-0.51l0,0c0,0,0.002-0.002,0.002-0.004l0,0c0.037-0.068,0.529-0.906,1.424-1.693
	c0.912-0.801,2.188-1.537,3.889-1.539c1.758,0.002,3.094,0.791,4.035,1.625c0.467,0.414,0.824,0.836,1.059,1.146
	c0.117,0.154,0.205,0.283,0.26,0.367c0.027,0.043,0.049,0.074,0.061,0.094c0.004,0.01,0.008,0.016,0.01,0.02h0.002l0,0l1.83-0.486
	v-15.33L33.3,13.719z M13.726,24.812h-0.004c-2.303,0-4.049,1.023-5.191,2.035V14.482c0.199-0.305,0.643-0.918,1.305-1.5
	c0.914-0.803,2.188-1.539,3.891-1.539c1.758,0,3.094,0.789,4.035,1.623c0.467,0.416,0.824,0.836,1.059,1.146
	c0.082,0.109,0.148,0.203,0.201,0.281v12.4C17.856,25.867,16.071,24.812,13.726,24.812z M31.47,26.895
	c-1.164-1.027-2.949-2.082-5.295-2.082c-2.305-0.002-4.053,1.023-5.195,2.037V14.482c0.199-0.305,0.641-0.916,1.307-1.5
	c0.912-0.803,2.188-1.539,3.889-1.539c1.758,0,3.094,0.789,4.035,1.623c0.467,0.416,0.824,0.836,1.059,1.146
	c0.082,0.109,0.15,0.203,0.201,0.279V26.895z"/>
</svg>
