<?xml version="1.0" encoding="utf-8"?>
<!-- Generator: Adobe Illustrator 15.0.2, SVG Export Plug-In . SVG Version: 6.00 Build 0)  -->
<!DOCTYPE svg PUBLIC "-//W3C//DTD SVG 1.0//EN" "http://www.w3.org/TR/2001/REC-SVG-20010904/DTD/svg10.dtd">
<svg version="1.0" id="Layer_1" xmlns="http://www.w3.org/2000/svg" xmlns:xlink="http://www.w3.org/1999/xlink" x="0px" y="0px"
	 width="40px" height="40px" viewBox="0 0 40 40" enable-background="new 0 0 40 40" xml:space="preserve">
<path fill="#FFFFFF" d="M27.02,15.509l1.115-1.857l-1.81-1.189l0.198-2.156l-2.146-0.285L23.62,7.989l-2.057,0.675L20,7.163
	l-1.561,1.501l-2.06-0.675l-0.756,2.031l-2.147,0.285l0.2,2.156l-1.812,1.189l1.116,1.857l-1.116,1.855l1.812,1.188l-0.2,2.158
	l2.147,0.284l0.756,2.029l2.06-0.673L20,23.853l1.563-1.501l2.057,0.673l0.757-2.029l2.146-0.284l-0.198-2.158l1.81-1.188
	L27.02,15.509z M21.949,24.044l-0.917,0.883L20,25.919l-1.032-0.992l-0.916-0.883l-1.209,0.396l-1.217,0.398v7.998l4.295-2.699
	l4.454,2.699v-7.996l-1.218-0.4L21.949,24.044z"/>
</svg>
