<?xml version="1.0" encoding="utf-8"?>
<!-- Generator: Adobe Illustrator 15.0.2, SVG Export Plug-In . SVG Version: 6.00 Build 0)  -->
<!DOCTYPE svg PUBLIC "-//W3C//DTD SVG 1.0//EN" "http://www.w3.org/TR/2001/REC-SVG-20010904/DTD/svg10.dtd">
<svg version="1.0" id="Layer_1" xmlns="http://www.w3.org/2000/svg" xmlns:xlink="http://www.w3.org/1999/xlink" x="0px" y="0px"
	 width="40px" height="40px" viewBox="0 0 40 40" enable-background="new 0 0 40 40" xml:space="preserve">
<path fill="#FFFFFF" d="M39.643,18.95c-1.384,0.236-3.389-0.008-4.449-0.451c2.206-0.184,3.701-1.186,4.276-2.547
	c-0.792,0.489-3.267,1.023-4.627,0.515c-0.071-0.321-0.143-0.627-0.218-0.903c-1.04-3.821-4.6-6.899-8.329-6.527
	c0.304-0.122,0.605-0.234,0.915-0.338c0.407-0.148,2.817-0.541,2.438-1.39c-0.319-0.75-3.264,0.564-3.817,0.735
	c0.73-0.273,1.944-0.746,2.069-1.589c-1.118,0.153-2.219,0.685-3.069,1.455c0.31-0.33,0.541-0.732,0.592-1.166
	c-2.991,1.912-4.737,5.764-6.149,9.503c-1.11-1.078-2.096-1.924-2.977-2.396c-2.475-1.326-5.434-2.713-10.079-4.44
	c-0.143,1.538,0.76,3.585,3.359,4.945c-0.563-0.077-1.592,0.093-2.415,0.289c0.336,1.765,1.431,3.216,4.398,3.918
	c-1.356,0.09-2.058,0.399-2.693,1.064c0.619,1.228,2.127,2.669,4.836,2.372c-3.015,1.303-1.229,3.71,1.226,3.353
	c-4.185,4.327-10.783,4.005-14.572,0.388c9.891,13.492,31.395,7.979,34.598-5.016C37.357,20.741,38.769,19.892,39.643,18.95z"/>
</svg>
