<?xml version="1.0" encoding="utf-8"?>
<!-- Generator: Adobe Illustrator 15.1.0, SVG Export Plug-In . SVG Version: 6.00 Build 0)  -->
<!DOCTYPE svg PUBLIC "-//W3C//DTD SVG 1.1//EN" "http://www.w3.org/Graphics/SVG/1.1/DTD/svg11.dtd">
<svg version="1.1" id="Layer_1" xmlns="http://www.w3.org/2000/svg" xmlns:xlink="http://www.w3.org/1999/xlink" x="0px" y="0px"
	 width="40px" height="40px" viewBox="0 0 40 40" enable-background="new 0 0 40 40" xml:space="preserve">
<g id="Layer_1_1_" display="none">
	<path display="inline" d="M19.477,0c0.864,0,1.739,0.058,2.619,0.176c10.676,1.438,18.166,11.249,16.729,21.92
		c-1.32,9.789-9.691,16.902-19.301,16.902c-0.862,0-1.739-0.061-2.621-0.176C6.229,37.389-1.261,27.578,0.177,16.902
		C1.491,7.109,9.861,0,19.477,0 M19.477,2.48c-8.474,0-15.713,6.343-16.843,14.751C2.029,21.738,3.212,26.21,5.97,29.824
		c2.757,3.609,6.758,5.936,11.263,6.539c0.763,0.104,1.532,0.154,2.291,0.154c8.469,0,15.708-6.352,16.842-14.758
		c0.604-4.508-0.578-8.979-3.337-12.592c-2.76-3.614-6.762-5.938-11.271-6.545C21.006,2.532,20.235,2.48,19.477,2.48"/>
</g>
<g id="Layer_2_1_">
	<path fill="#FFFFFF" d="M19.998,7.785c-6.748,0-12.212,5.471-12.212,12.217c0,6.743,5.465,12.213,12.212,12.213
		s12.217-5.47,12.217-12.213C32.215,13.256,26.745,7.785,19.998,7.785z M17.801,22.197h-6.58v-4.396h6.58h4.392h6.585v4.396h-6.585
		H17.801z"/>
</g>
</svg>
