<?xml version="1.0" encoding="utf-8"?>
<!-- Generator: Adobe Illustrator 15.0.2, SVG Export Plug-In . SVG Version: 6.00 Build 0)  -->
<!DOCTYPE svg PUBLIC "-//W3C//DTD SVG 1.0//EN" "http://www.w3.org/TR/2001/REC-SVG-20010904/DTD/svg10.dtd">
<svg version="1.0" id="Layer_1" xmlns="http://www.w3.org/2000/svg" xmlns:xlink="http://www.w3.org/1999/xlink" x="0px" y="0px"
	 width="1366px" height="768px" viewBox="0 0 1366 768" enable-background="new 0 0 1366 768" xml:space="preserve">
<path opacity="0.05" fill="#FFFFFF" d="M753.086,383.979c0-167.22-95.701-312.508-235.204-383.979H375.164
	c79.831,10.97,151.918,46.245,208.532,98.124c-1.688-0.108-3.289-0.335-5.022-0.335c-38.066,0-65.097,33.176-65.097,68.788
	c0,31.932,18.439,58.974,38.067,90.906c14.737,25.818,31.966,58.996,31.966,106.91c0,33.133-12.769,71.656-29.477,125.327
	l-38.695,129.157L375.374,202.21c23.328-1.212,44.365-3.679,44.365-3.679c20.862-2.478,18.415-33.177-2.468-31.933
	c0,0-62.804,4.923-103.328,4.923c-38.079,0-102.073-4.923-102.073-4.923c-20.906-1.223-23.363,30.699-2.467,31.933
	c0,0,19.791,2.467,40.642,3.679l60.391,165.483l-84.835,254.408L84.487,202.21c23.351-1.212,44.344-3.679,44.344-3.679
	c20.852-2.478,18.417-33.177-2.489-31.933c0,0-62.762,4.923-103.318,4.923c-6.75,0-14.63-0.151-23.024-0.407v143.002
	l152.831,418.704C90.868,702.721,38.135,656.597,0,599.849v70.568C35.462,710.24,78.179,743.469,126.057,768H269.36
	c-19.469-2.673-38.478-6.781-56.916-12.217L328.768,417.87L447.916,744.27c0.758,1.925,1.73,3.68,2.769,5.345
	c-24.312,8.58-49.72,14.792-75.962,18.386h143.138C657.375,696.518,753.086,551.199,753.086,383.979z M516.846,719.014
	l118.379-342.307c22.117-55.316,29.477-99.498,29.477-138.81c-0.021-14.272-0.952-27.528-2.575-39.896
	c30.211,55.208,47.437,118.564,47.437,185.957C709.562,526.986,632.064,651.794,516.846,719.014z"/>
<path opacity="0.05" fill="#FFFFFF" d="M268.687,0H126.035C78.166,24.525,35.457,57.743,0,97.555v70.655
	C60.218,78.563,156.812,15.394,268.687,0z"/>
</svg>
