<?xml version="1.0" encoding="utf-8"?>
<!-- Generator: Adobe Illustrator 15.0.2, SVG Export Plug-In . SVG Version: 6.00 Build 0)  -->
<!DOCTYPE svg PUBLIC "-//W3C//DTD SVG 1.0//EN" "http://www.w3.org/TR/2001/REC-SVG-20010904/DTD/svg10.dtd">
<svg version="1.0" id="Layer_1" xmlns="http://www.w3.org/2000/svg" xmlns:xlink="http://www.w3.org/1999/xlink" x="0px" y="0px"
	 width="40px" height="40px" viewBox="0 0 40 40" enable-background="new 0 0 40 40" xml:space="preserve">
<path fill="#FFFFFF" d="M20,0.546C9.273,0.546,0.546,9.273,0.546,20c0,10.727,8.727,19.456,19.454,19.456
	c10.727,0,19.454-8.729,19.454-19.456C39.454,9.273,30.727,0.546,20,0.546z M2.509,20c0-2.536,0.544-4.943,1.515-7.119l8.344,22.86
	C6.532,32.906,2.509,26.923,2.509,20z M20,37.491c-1.718,0-3.375-0.252-4.942-0.713l5.249-15.249l5.377,14.729
	c0.034,0.087,0.078,0.166,0.124,0.241C23.99,37.14,22.037,37.491,20,37.491z M22.41,11.798c1.053-0.055,2.002-0.166,2.002-0.166
	c0.942-0.112,0.831-1.497-0.111-1.441c0,0-2.834,0.222-4.663,0.222c-1.718,0-4.606-0.222-4.606-0.222
	c-0.943-0.055-1.054,1.385-0.111,1.441c0,0,0.893,0.111,1.834,0.166l2.725,7.467l-3.828,11.48L9.284,11.798
	c1.054-0.055,2.001-0.166,2.001-0.166c0.941-0.112,0.831-1.497-0.112-1.441c0,0-2.832,0.222-4.662,0.222
	c-0.328,0-0.714-0.008-1.125-0.021C8.514,5.645,13.889,2.509,20,2.509c4.553,0,8.699,1.741,11.811,4.592
	c-0.076-0.005-0.149-0.015-0.227-0.015c-1.718,0-2.937,1.497-2.937,3.104c0,1.441,0.831,2.661,1.717,4.102
	c0.666,1.165,1.442,2.662,1.442,4.824c0,1.496-0.575,3.234-1.33,5.655l-1.745,5.828L22.41,11.798z M35.349,11.608
	c1.364,2.491,2.141,5.35,2.141,8.391c0,6.454-3.497,12.086-8.696,15.119l5.342-15.446c0.998-2.496,1.33-4.49,1.33-6.264
	C35.465,12.764,35.423,12.166,35.349,11.608z"/>
</svg>
