<?xml version="1.0" encoding="utf-8"?>
<!-- Generator: Adobe Illustrator 15.1.0, SVG Export Plug-In . SVG Version: 6.00 Build 0)  -->
<!DOCTYPE svg PUBLIC "-//W3C//DTD SVG 1.1//EN" "http://www.w3.org/Graphics/SVG/1.1/DTD/svg11.dtd">
<svg version="1.1" id="Layer_1" xmlns="http://www.w3.org/2000/svg" xmlns:xlink="http://www.w3.org/1999/xlink" x="0px" y="0px"
	 width="292.295px" height="41.395px" viewBox="0 -1.395 292.295 41.395" enable-background="new 0 -1.395 292.295 41.395"
	 xml:space="preserve">
<g>
	<g id="Layer_2">
		<path fill="#FFFFFF" d="M77.369,14.172h-8.851v0.939c2.768,0,3.214,0.593,3.214,4.104v6.328c0,3.511-0.446,4.154-3.214,4.154
			c-2.126-0.297-3.562-1.436-5.539-3.608l-2.274-2.473c3.065-0.546,4.699-2.474,4.699-4.649c0-2.721-2.323-4.797-6.675-4.797h-8.703
			v0.939c2.769,0,3.215,0.593,3.215,4.104v6.327c0,3.513-0.446,4.154-3.215,4.154v0.941h9.84v-0.941
			c-2.77,0-3.214-0.642-3.214-4.154v-1.777h0.841l5.488,6.873h14.39c7.071,0,10.137-3.759,10.137-8.258
			C87.507,17.88,84.44,14.172,77.369,14.172z M56.651,22.232v-6.576h2.028c2.225,0,3.213,1.532,3.213,3.312
			c0,1.729-0.987,3.263-3.213,3.263h-2.028V22.232z M77.517,29.106h-0.346c-1.781,0-2.029-0.445-2.029-2.72v-10.73
			c0,0,2.177,0,2.375,0c5.143,0,6.083,3.758,6.083,6.675C83.6,25.348,82.66,29.106,77.517,29.106z"/>
		<path fill="#FFFFFF" d="M22.483,24.062l3.412-10.087c0.988-2.917,0.544-3.758-2.621-3.758v-0.99h9.295v0.99
			c-3.115,0-3.856,0.742-5.092,4.351L21.84,31.479h-0.642l-5.044-15.477l-5.143,15.477h-0.642L4.88,14.567
			c-1.186-3.609-1.979-4.351-4.846-4.351v-0.99h10.978v0.99c-2.917,0-3.708,0.692-2.67,3.758l3.312,10.087l4.994-14.834h0.94
			L22.483,24.062z"/>
		<path fill="#FFFFFF" d="M39.295,31.281c-5.441,0-9.891-4.005-9.891-8.901c0-4.845,4.45-8.851,9.891-8.851
			c5.439,0,9.89,4.005,9.89,8.851C49.185,27.276,44.734,31.281,39.295,31.281z M39.295,15.063c-4.55,0-6.132,4.104-6.132,7.317
			c0,3.263,1.582,7.318,6.132,7.318c4.598,0,6.181-4.054,6.181-7.318C45.477,19.167,43.894,15.063,39.295,15.063z"/>
		<path fill="#FFFFFF" d="M99.718,29.649v0.988H88.396v-0.988c3.312,0,3.907-0.841,3.907-5.784v-7.913
			c0-4.945-0.594-5.736-3.907-5.736v-0.99H98.63c5.095,0,7.912,2.621,7.912,6.132c0,3.412-2.818,6.083-7.912,6.083h-2.818v2.424
			C95.812,28.809,96.404,29.649,99.718,29.649z M98.63,11.007h-2.818v8.604h2.818c2.771,0,4.055-1.929,4.055-4.253
			C102.686,12.986,101.4,11.007,98.63,11.007z"/>
		<path fill="#FFFFFF" d="M140.513,25.991l-0.248,0.89c-0.445,1.633-0.989,2.226-4.5,2.226h-0.692c-2.57,0-3.016-0.593-3.016-4.105
			v-2.274c3.858,0,4.153,0.347,4.153,2.918h0.941v-7.369h-0.941c0,2.573-0.295,2.917-4.153,2.917v-5.537h2.72
			c3.512,0,4.054,0.592,4.499,2.225l0.248,0.938h0.789l-0.344-4.646H125.43v0.939c2.77,0,3.214,0.593,3.214,4.105v6.326
			c0,3.213-0.377,4.021-2.561,4.139c-2.075-0.32-3.499-1.45-5.447-3.593l-2.276-2.473c3.066-0.546,4.7-2.474,4.7-4.649
			c0-2.721-2.324-4.797-6.675-4.797h-8.704v0.939c2.77,0,3.215,0.593,3.215,4.104v6.327c0,3.513-0.446,4.154-3.215,4.154v0.941h9.84
			v-0.941c-2.769,0-3.214-0.642-3.214-4.154v-1.777h0.841l5.489,6.873h20.322l0.296-4.648h-0.742V25.991z M114.306,22.232v-6.576
			h2.027c2.226,0,3.214,1.532,3.214,3.312c0,1.729-0.987,3.263-3.214,3.263h-2.027V22.232z"/>
		<path fill="#FFFFFF" d="M150.547,31.281c-1.977,0-3.706-1.037-4.449-1.681c-0.244,0.246-0.69,0.988-0.789,1.681h-0.939v-6.823
			h0.986c0.396,3.262,2.67,5.191,5.588,5.191c1.58,0,2.868-0.89,2.868-2.373c0-1.287-1.138-2.275-3.165-3.215l-2.82-1.335
			c-1.977-0.94-3.459-2.571-3.459-4.747c0-2.375,2.225-4.401,5.29-4.401c1.63,0,3.015,0.593,3.854,1.285
			c0.248-0.197,0.497-0.742,0.645-1.334h0.939v5.835h-1.038c-0.347-2.325-1.632-4.253-4.253-4.253c-1.384,0-2.672,0.791-2.672,2.027
			c0,1.285,1.04,1.978,3.412,3.064l2.721,1.337c2.375,1.136,3.312,2.965,3.312,4.449C156.58,29.106,153.861,31.281,150.547,31.281z"
			/>
		<path fill="#FFFFFF" d="M165.776,31.281c-1.977,0-3.708-1.037-4.448-1.681c-0.248,0.246-0.692,0.988-0.793,1.681h-0.939v-6.823
			h0.988c0.396,3.262,2.67,5.191,5.588,5.191c1.583,0,2.869-0.89,2.869-2.373c0-1.287-1.139-2.275-3.166-3.215l-2.82-1.335
			c-1.977-0.94-3.461-2.571-3.461-4.747c0-2.375,2.225-4.401,5.293-4.401c1.63,0,3.014,0.593,3.856,1.285
			c0.246-0.197,0.492-0.742,0.642-1.334h0.939v5.835h-1.037c-0.347-2.325-1.633-4.253-4.253-4.253c-1.384,0-2.67,0.791-2.67,2.027
			c0,1.285,1.038,1.978,3.41,3.064l2.721,1.337c2.374,1.136,3.312,2.965,3.312,4.449C171.809,29.106,169.09,31.281,165.776,31.281z"
			/>
		<path fill="#FFFFFF" d="M177.137,30.833c-0.958,0-1.698-0.796-1.698-1.756c0-0.957,0.74-1.753,1.698-1.753
			c0.959,0,1.779,0.796,1.779,1.753C178.916,30.037,178.096,30.833,177.137,30.833z"/>
		<path fill="#FFFFFF" d="M195.884,30.312c-0.138-0.658-0.576-1.316-0.933-1.562c-1.396,1.454-3.177,2.329-5.096,2.329
			c-4.631,0-8.411-3.916-8.411-8.684c0-4.766,3.78-8.683,8.411-8.683c1.919,0,3.697,0.847,5.096,2.327
			c0.356-0.274,0.795-0.875,0.933-1.56h0.548v6.025h-0.548c-0.767-3.561-2.877-5.724-5.918-5.724c-4.384,0-5.971,4.219-5.971,7.615
			c0,3.397,1.587,7.589,5.971,7.589c3.041,0,5.149-2.189,5.918-5.698h0.548v6.026H195.884L195.884,30.312z"/>
		<path fill="#FFFFFF" d="M207.883,31.078c-5.014,0-9.122-3.916-9.122-8.684c0-4.766,4.108-8.683,9.122-8.683
			c5.041,0,9.149,3.916,9.149,8.683C217.032,27.162,212.924,31.078,207.883,31.078z M201.363,22.395c0,3.396,1.808,7.589,6.52,7.589
			c4.738,0,6.547-4.191,6.547-7.589c0-3.398-1.809-7.616-6.547-7.616C203.171,14.779,201.363,18.997,201.363,22.395z"/>
		<path fill="#FFFFFF" d="M220.869,26.832c0,2.739,0.356,3.207,2.631,3.207v0.574h-6.246v-0.574c2.273,0,2.602-0.466,2.602-3.207
			v-8.903c0-2.739-0.328-3.178-2.602-3.178v-0.575h4.656l5.807,13.341l5.781-13.341h4.302v0.575c-2.301,0-2.629,0.439-2.629,3.178
			v8.903c0,2.739,0.328,3.207,2.629,3.207v0.574h-7.396v-0.574c2.273,0,2.602-0.466,2.602-3.207v-8.93l-5.698,13.176h-0.354
			l-6.082-13.997v9.751H220.869z"/>
	</g>
	<g id="Layer_1_1_">
		<path fill="#FFFFFF" d="M271.838-1.122c-11.264,0-20.425,9.162-20.425,20.424c0,11.261,9.161,20.426,20.425,20.426
			c11.262,0,20.423-9.165,20.423-20.426C292.261,8.04,283.1-1.122,271.838-1.122z M253.474,19.302c0-2.663,0.572-5.189,1.591-7.474
			l8.76,24C257.697,32.852,253.474,26.569,253.474,19.302z M271.838,37.665c-1.805,0-3.543-0.265-5.189-0.75l5.512-16.008
			l5.645,15.463c0.035,0.091,0.082,0.174,0.131,0.253C276.027,37.297,273.977,37.665,271.838,37.665z M274.368,10.69
			c1.105-0.058,2.102-0.174,2.102-0.174c0.986-0.117,0.872-1.572-0.116-1.513c0,0-2.976,0.233-4.896,0.233
			c-1.803,0-4.834-0.233-4.834-0.233c-0.99-0.058-1.107,1.455-0.116,1.513c0,0,0.937,0.117,1.925,0.174l2.861,7.84l-4.02,12.052
			l-6.687-19.892c1.107-0.058,2.102-0.174,2.102-0.174c0.986-0.117,0.872-1.572-0.118-1.513c0,0-2.974,0.233-4.895,0.233
			c-0.346,0-0.749-0.008-1.182-0.022c3.285-4.984,8.928-8.276,15.344-8.276c4.779,0,9.133,1.828,12.399,4.821
			c-0.078-0.006-0.155-0.016-0.237-0.016c-1.805,0-3.086,1.572-3.086,3.259c0,1.513,0.873,2.794,1.804,4.307
			c0.699,1.223,1.513,2.794,1.513,5.064c0,1.571-0.604,3.395-1.396,5.937l-1.832,6.119L274.368,10.69z M287.953,10.491
			c1.431,2.615,2.247,5.617,2.247,8.81c0,6.775-3.671,12.688-9.129,15.872l5.608-16.216c1.047-2.621,1.396-4.713,1.396-6.576
			C288.074,11.705,288.029,11.077,287.953,10.491z"/>
	</g>
</g>
</svg>
